<svg height="1566" width="720" xmlns="http://www.w3.org/2000/svg">
<rect height="1566" fill="#555" width="720"></rect>
<text fill="#7f7" font-family="Courier New" font-size="12" xml:space="preserve">
<tspan x="10" y="26">33 megabytes installed</tspan>
<tspan x="10" y="42"></tspan>
<tspan x="10" y="58">node_modules</tspan>
<tspan x="10" y="74">└─┬ grunt-contrib-yuidoc@1.0.0 </tspan>
<tspan x="10" y="90">  └─┬ yuidocjs@0.10.2 </tspan>
<tspan x="10" y="106">    ├─┬ express@4.15.2 </tspan>
<tspan x="10" y="122">    │ ├─┬ accepts@1.3.3 </tspan>
<tspan x="10" y="138">    │ │ ├─┬ mime-types@2.1.15 </tspan>
<tspan x="10" y="154">    │ │ │ └── mime-db@1.27.0 </tspan>
<tspan x="10" y="170">    │ │ └── negotiator@0.6.1 </tspan>
<tspan x="10" y="186">    │ ├── array-flatten@1.1.1 </tspan>
<tspan x="10" y="202">    │ ├── content-disposition@0.5.2 </tspan>
<tspan x="10" y="218">    │ ├── content-type@1.0.2 </tspan>
<tspan x="10" y="234">    │ ├── cookie@0.3.1 </tspan>
<tspan x="10" y="250">    │ ├── cookie-signature@1.0.6 </tspan>
<tspan x="10" y="266">    │ ├─┬ debug@2.6.1 </tspan>
<tspan x="10" y="282">    │ │ └── ms@0.7.2 </tspan>
<tspan x="10" y="298">    │ ├── depd@1.1.0 </tspan>
<tspan x="10" y="314">    │ ├── encodeurl@1.0.1 </tspan>
<tspan x="10" y="330">    │ ├── escape-html@1.0.3 </tspan>
<tspan x="10" y="346">    │ ├── etag@1.8.0 </tspan>
<tspan x="10" y="362">    │ ├─┬ finalhandler@1.0.2 </tspan>
<tspan x="10" y="378">    │ │ ├─┬ debug@2.6.4 </tspan>
<tspan x="10" y="394">    │ │ │ └── ms@0.7.3 </tspan>
<tspan x="10" y="410">    │ │ └── unpipe@1.0.0 </tspan>
<tspan x="10" y="426">    │ ├── fresh@0.5.0 </tspan>
<tspan x="10" y="442">    │ ├── merge-descriptors@1.0.1 </tspan>
<tspan x="10" y="458">    │ ├── methods@1.1.2 </tspan>
<tspan x="10" y="474">    │ ├─┬ on-finished@2.3.0 </tspan>
<tspan x="10" y="490">    │ │ └── ee-first@1.1.1 </tspan>
<tspan x="10" y="506">    │ ├── parseurl@1.3.1 </tspan>
<tspan x="10" y="522">    │ ├── path-to-regexp@0.1.7 </tspan>
<tspan x="10" y="538">    │ ├─┬ proxy-addr@1.1.4 </tspan>
<tspan x="10" y="554">    │ │ ├── forwarded@0.1.0 </tspan>
<tspan x="10" y="570">    │ │ └── ipaddr.js@1.3.0 </tspan>
<tspan x="10" y="586">    │ ├── qs@6.4.0 </tspan>
<tspan x="10" y="602">    │ ├── range-parser@1.2.0 </tspan>
<tspan x="10" y="618">    │ ├─┬ send@0.15.1 </tspan>
<tspan x="10" y="634">    │ │ ├── destroy@1.0.4 </tspan>
<tspan x="10" y="650">    │ │ ├── http-errors@1.6.1 </tspan>
<tspan x="10" y="666">    │ │ └── mime@1.3.4 </tspan>
<tspan x="10" y="682">    │ ├── serve-static@1.12.1 </tspan>
<tspan x="10" y="698">    │ ├── setprototypeof@1.0.3 </tspan>
<tspan x="10" y="714">    │ ├── statuses@1.3.1 </tspan>
<tspan x="10" y="730">    │ ├─┬ type-is@1.6.15 </tspan>
<tspan x="10" y="746">    │ │ └── media-typer@0.3.0 </tspan>
<tspan x="10" y="762">    │ ├── utils-merge@1.0.0 </tspan>
<tspan x="10" y="778">    │ └── vary@1.1.1 </tspan>
<tspan x="10" y="794">    ├── graceful-fs@4.1.11 </tspan>
<tspan x="10" y="810">    ├─┬ markdown-it@4.4.0 </tspan>
<tspan x="10" y="826">    │ ├─┬ argparse@1.0.9 </tspan>
<tspan x="10" y="842">    │ │ └── sprintf-js@1.0.3 </tspan>
<tspan x="10" y="858">    │ ├── entities@1.1.1 </tspan>
<tspan x="10" y="874">    │ ├── linkify-it@1.2.4 </tspan>
<tspan x="10" y="890">    │ ├── mdurl@1.0.1 </tspan>
<tspan x="10" y="906">    │ └── uc.micro@1.0.3 </tspan>
<tspan x="10" y="922">    ├── mdn-links@0.1.0 </tspan>
<tspan x="10" y="938">    ├─┬ minimatch@3.0.3 </tspan>
<tspan x="10" y="954">    │ └─┬ brace-expansion@1.1.7 </tspan>
<tspan x="10" y="970">    │   ├── balanced-match@0.4.2 </tspan>
<tspan x="10" y="986">    │   └── concat-map@0.0.1 </tspan>
<tspan x="10" y="1002">    ├─┬ rimraf@2.6.1 </tspan>
<tspan x="10" y="1018">    │ └─┬ glob@7.1.1 </tspan>
<tspan x="10" y="1034">    │   ├── fs.realpath@1.0.0 </tspan>
<tspan x="10" y="1050">    │   ├─┬ inflight@1.0.6 </tspan>
<tspan x="10" y="1066">    │   │ └── wrappy@1.0.2 </tspan>
<tspan x="10" y="1082">    │   ├── inherits@2.0.3 </tspan>
<tspan x="10" y="1098">    │   ├── once@1.4.0 </tspan>
<tspan x="10" y="1114">    │   └── path-is-absolute@1.0.1 </tspan>
<tspan x="10" y="1130">    └─┬ yui@3.18.1 </tspan>
<tspan x="10" y="1146">      └─┬ request@2.40.0 </tspan>
<tspan x="10" y="1162">        ├── aws-sign2@0.5.0 </tspan>
<tspan x="10" y="1178">        ├── forever-agent@0.5.2 </tspan>
<tspan x="10" y="1194">        ├─┬ form-data@0.1.4 </tspan>
<tspan x="10" y="1210">        │ ├── async@0.9.2 </tspan>
<tspan x="10" y="1226">        │ ├─┬ combined-stream@0.0.7 </tspan>
<tspan x="10" y="1242">        │ │ └── delayed-stream@0.0.5 </tspan>
<tspan x="10" y="1258">        │ └── mime@1.2.11 </tspan>
<tspan x="10" y="1274">        ├─┬ hawk@1.1.1 </tspan>
<tspan x="10" y="1290">        │ ├── boom@0.4.2 </tspan>
<tspan x="10" y="1306">        │ ├── cryptiles@0.2.2 </tspan>
<tspan x="10" y="1322">        │ ├── hoek@0.9.1 </tspan>
<tspan x="10" y="1338">        │ └── sntp@0.2.4 </tspan>
<tspan x="10" y="1354">        ├─┬ http-signature@0.10.1 </tspan>
<tspan x="10" y="1370">        │ ├── asn1@0.1.11 </tspan>
<tspan x="10" y="1386">        │ ├── assert-plus@0.1.5 </tspan>
<tspan x="10" y="1402">        │ └── ctype@0.5.3 </tspan>
<tspan x="10" y="1418">        ├── json-stringify-safe@5.0.1 </tspan>
<tspan x="10" y="1434">        ├── mime-types@1.0.2 </tspan>
<tspan x="10" y="1450">        ├── node-uuid@1.4.8 </tspan>
<tspan x="10" y="1466">        ├── oauth-sign@0.3.0 </tspan>
<tspan x="10" y="1482">        ├── qs@1.0.2 </tspan>
<tspan x="10" y="1498">        ├── stringstream@0.0.5 </tspan>
<tspan x="10" y="1514">        ├─┬ tough-cookie@2.3.2 </tspan>
<tspan x="10" y="1530">        │ └── punycode@1.4.1 </tspan>
<tspan x="10" y="1546">        └── tunnel-agent@0.4.3</tspan>
</text>
</svg>
